<svg width="285" height="441" viewBox="0 0 285 441" fill="none" xmlns="http://www.w3.org/2000/svg">
<g filter="url(#filter0_di_2002_2)">
<ellipse cx="118.233" cy="223.489" rx="61.7897" ry="34.4145" fill="#4D21FF"/>
<path d="M179.476 223.489C179.476 232.704 172.763 241.161 161.659 247.345C150.573 253.52 135.221 257.356 118.233 257.356C101.246 257.356 85.8936 253.52 74.8076 247.345C63.7034 241.161 56.9908 232.704 56.9908 223.489C56.9908 214.274 63.7034 205.817 74.8076 199.632C85.8936 193.458 101.246 189.621 118.233 189.621C135.221 189.621 150.573 193.458 161.659 199.632C172.763 205.817 179.476 214.274 179.476 223.489Z" stroke="black" stroke-width="1.09454"/>
</g>
<g filter="url(#filter1_d_2002_2)">
<path d="M113.746 169.467L98.7906 161.011C97 159.999 97.0157 157.415 98.8184 156.424L110.685 149.904C112.865 148.706 115.517 148.755 117.651 150.031L130.72 157.846C132.479 158.898 132.408 161.471 130.594 162.424L117.098 169.518C116.045 170.072 114.782 170.052 113.746 169.467Z" fill="#7B5CF7"/>
<path d="M113.746 169.467L98.7906 161.011C97 159.999 97.0157 157.415 98.8184 156.424L110.685 149.904C112.865 148.706 115.517 148.755 117.651 150.031L130.72 157.846C132.479 158.898 132.408 161.471 130.594 162.424L117.098 169.518C116.045 170.072 114.782 170.052 113.746 169.467Z" stroke="black" stroke-width="0.875318"/>
</g>
<path d="M176.894 232.092L133.094 225.053L115.887 219.578L96.3331 222.707L129.965 256.339C153.117 256.965 170.898 240.435 176.894 232.092Z" fill="#2606AA"/>
<path d="M132.108 221.721V163.569C132.108 162.895 131.377 162.474 130.794 162.812L117.736 170.371C116.344 171.177 114.623 171.155 113.252 170.313L97.6473 160.724C97.5015 160.635 97.3139 160.74 97.3139 160.911V220.755C97.3139 222.045 98.0236 223.231 99.1608 223.841L113.838 231.709C114.863 232.259 116.093 232.264 117.123 231.722L130.237 224.82C131.388 224.214 132.108 223.021 132.108 221.721Z" fill="#4D21FF" stroke="black" stroke-width="3.12859"/>
<path d="M132.108 221.914V162.944C132.108 162.776 131.928 162.671 131.782 162.753L115.477 171.978V231.154C115.477 231.809 116.17 232.232 116.752 231.933L130.206 225.029C131.374 224.43 132.108 223.227 132.108 221.914Z" fill="#4D21FF" stroke="black" stroke-width="3.12859"/>
<path d="M22.0291 101.473L3.90766 95.6487C2.55592 95.2142 2.43558 93.3486 3.72029 92.7441L187.16 6.41955C195.074 2.69534 204.185 2.45398 212.285 5.75399L217.37 7.82534C218.635 8.34086 218.678 10.117 217.438 10.6927L22.0291 101.473Z" fill="#7F5EFC" stroke="black" stroke-width="1.5643"/>
<path d="M126.642 184.255V68.0731C126.642 64.1954 122.728 61.5424 119.126 62.9788L26.8982 99.7599C24.0268 100.905 20.8331 100.947 17.9326 99.8773L4.33915 94.8644C3.44395 94.5343 2.49365 95.1967 2.49365 96.1509V233.728C2.49365 241.883 8.10184 248.966 16.0386 250.836C20.1652 251.809 24.5042 251.257 28.256 249.282L114.922 203.668C122.13 199.875 126.642 192.4 126.642 184.255Z" fill="#7F5EFC" stroke="black" stroke-width="1.5643"/>
<path d="M220.507 139.93V9.78514C220.507 8.77787 219.457 8.11443 218.547 8.54672L22.4446 101.726V247.28C22.4446 249.605 24.8901 251.118 26.9701 250.08L208.364 159.559C215.805 155.846 220.507 148.245 220.507 139.93Z" fill="#4D21FF" stroke="black" stroke-width="1.5643"/>
<g filter="url(#filter2_i_2002_2)">
<path d="M201.923 136.906V33.255C201.923 32.2464 200.871 31.583 199.961 32.0178L47.9189 104.678C43.5694 106.757 40.8006 111.149 40.8006 115.97V222.421C40.8006 226.502 45.0981 229.153 48.7452 227.323L189.826 156.513C197.242 152.791 201.923 145.204 201.923 136.906Z" fill="#4D21FF"/>
</g>
<path d="M201.923 136.906V33.255C201.923 32.2464 200.871 31.583 199.961 32.0178L47.9189 104.678C43.5694 106.757 40.8006 111.149 40.8006 115.97V222.421C40.8006 226.502 45.0981 229.153 48.7452 227.323L189.826 156.513C197.242 152.791 201.923 145.204 201.923 136.906Z" stroke="black" stroke-width="3.12859"/>
<path d="M158.123 122.707V87.7121C158.123 85.3989 155.699 83.8857 153.621 84.9009L103.755 109.26C101.606 110.31 100.244 112.492 100.244 114.883V151.102C100.244 153.442 102.719 154.954 104.801 153.886L154.722 128.275C156.81 127.204 158.123 125.054 158.123 122.707Z" stroke="black" stroke-width="1.5643" stroke-linecap="round" stroke-dasharray="7.82 7.82"/>
<path d="M125.273 154.37V131.493C125.273 129.185 122.858 127.671 120.78 128.678L86.5666 145.246C84.4078 146.291 83.0366 148.479 83.0366 150.877V174.587C83.0366 176.922 85.5021 178.434 87.5835 177.376L121.852 159.947C123.951 158.88 125.273 156.725 125.273 154.37Z" stroke="black" stroke-width="1.5643"/>
<path d="M75.2151 214.578V98.3448L48.0411 110.973C43.6252 113.025 40.8006 117.452 40.8006 122.322V222.545C40.8006 226.596 45.0404 229.249 48.6831 227.477L75.2151 214.578Z" fill="#2606AA" stroke="black" stroke-width="3.12859"/>
<path d="M169.855 164.827L167.509 52.9802L193.584 40.2769C195.645 39.273 198.05 40.753 198.082 43.0451L199.364 133.399C199.495 142.635 194.528 151.192 186.444 155.66L169.855 164.827Z" fill="#2606AA" stroke="black" stroke-width="3.12859"/>
<path d="M140.781 132.625L152 143.844C153.971 145.814 157.341 144.419 157.341 141.631V136.203C157.341 135.493 157.582 134.804 158.026 134.249L159.531 132.367C161.17 130.319 159.712 127.284 157.088 127.284H142.994C140.206 127.284 138.81 130.654 140.781 132.625Z" fill="#FF01C4" stroke="#101010" stroke-width="3.12859" stroke-linecap="round"/>
<mask id="mask0_2002_2" style="mask-type:alpha" maskUnits="userSpaceOnUse" x="40" y="31" width="163" height="198">
<path d="M201.923 136.906V33.255C201.923 32.2464 200.871 31.583 199.961 32.0178L47.9189 104.678C43.5694 106.757 40.8006 111.149 40.8006 115.97V222.421C40.8006 226.502 45.0981 229.153 48.7452 227.323L189.826 156.513C197.242 152.791 201.923 145.204 201.923 136.906Z" fill="#4D21FF" stroke="black" stroke-width="1.5643"/>
</mask>
<g mask="url(#mask0_2002_2)">
<path opacity="0.2" d="M250.482 31.6017L159.043 314.114C158.528 315.706 159.356 317.42 160.922 318.007L193.781 330.325C195.401 330.932 197.207 330.108 197.811 328.487L313.931 16.6147C314.831 14.1974 312.584 11.7907 310.111 12.5232L252.57 29.5653C251.581 29.8583 250.8 30.6201 250.482 31.6017Z" fill="white"/>
</g>
<g filter="url(#filter3_di_2002_2)">
<path d="M164.561 273.567L154.952 268.282C152.184 266.76 151.127 261.861 152.213 258.895C154.452 252.778 160.529 252.875 166.3 255.896L169.444 257.541C173.543 259.687 176.112 263.931 176.112 268.558C176.112 269.703 176.741 270.755 177.75 271.297L234.677 301.869C245.715 307.797 245.653 323.649 234.568 329.49L187.844 354.107L170.664 345.056L225.51 318.385C227.776 317.283 227.876 314.091 225.683 312.849L168.654 280.555C166.979 279.607 165.944 277.832 165.944 275.907C165.944 274.933 165.414 274.037 164.561 273.567Z" fill="#FFFBEE" fill-opacity="0.2" shape-rendering="crispEdges"/>
<path d="M164.561 273.567L154.952 268.282C152.184 266.76 151.127 261.861 152.213 258.895C154.452 252.778 160.529 252.875 166.3 255.896L169.444 257.541C173.543 259.687 176.112 263.931 176.112 268.558C176.112 269.703 176.741 270.755 177.75 271.297L234.677 301.869C245.715 307.797 245.653 323.649 234.568 329.49L187.844 354.107L170.664 345.056L225.51 318.385C227.776 317.283 227.876 314.091 225.683 312.849L168.654 280.555C166.979 279.607 165.944 277.832 165.944 275.907C165.944 274.933 165.414 274.037 164.561 273.567Z" stroke="black" stroke-width="1.801" shape-rendering="crispEdges"/>
</g>
<circle cx="170.637" cy="265.725" r="3.12859" fill="#FFFBEE" fill-opacity="0.2"/>
<circle cx="236.039" cy="313.428" r="3.88754" fill="#FFFBEE" fill-opacity="0.2"/>
<path d="M170.637 273.526C171.854 273.656 174.809 273.215 176.894 270.417" stroke="black" stroke-width="1.03668" stroke-linecap="round"/>
<g filter="url(#filter4_d_2002_2)">
<path d="M208.653 421.679L52.4017 345.458C50.8816 344.716 50.8497 342.562 52.3471 341.775L107.523 312.807C114.684 309.048 123.206 308.922 130.474 312.468L273.58 382.281C278.139 384.505 278.236 390.966 273.746 393.326L220.134 421.506C216.553 423.389 212.289 423.453 208.653 421.679Z" fill="#7B5CF7" stroke="black" stroke-width="3.17605"/>
<g filter="url(#filter5_i_2002_2)">
<path d="M206.824 412.911L68.5517 345.619C67.028 344.878 66.9977 342.718 68.4999 341.934L116.255 317.01C118.576 315.799 121.333 315.76 123.688 316.905L263.945 385.167C265.468 385.909 265.499 388.068 263.997 388.852L218.267 412.748C214.695 414.614 210.448 414.675 206.824 412.911Z" fill="#2606AA"/>
</g>
<path d="M206.824 412.911L68.5517 345.619C67.028 344.878 66.9977 342.718 68.4999 341.934L116.255 317.01C118.576 315.799 121.333 315.76 123.688 316.905L263.945 385.167C265.468 385.909 265.499 388.068 263.997 388.852L218.267 412.748C214.695 414.614 210.448 414.675 206.824 412.911Z" stroke="black" stroke-width="3.17605"/>
<g filter="url(#filter6_d_2002_2)">
<path d="M136.55 328.549L136.58 327.393C136.595 326.799 135.958 326.415 135.44 326.705L123.738 333.26C122.622 333.885 121.268 333.912 120.129 333.332L106.095 326.189C105.968 326.125 105.817 326.217 105.817 326.36V328.402C105.817 329.585 106.497 330.662 107.566 331.169L120.568 337.347C121.439 337.761 122.455 337.74 123.309 337.291L134.914 331.183C135.896 330.666 136.522 329.659 136.55 328.549Z" fill="#1E0B6B" stroke="black" stroke-width="0.765903"/>
<path d="M136.553 328.234L136.515 327.038C136.51 326.897 136.359 326.809 136.234 326.875L122.242 334.26V337.456C122.242 337.559 122.351 337.625 122.442 337.577L134.912 331.045C135.953 330.5 136.59 329.408 136.553 328.234Z" fill="#4D21FF" stroke="black" stroke-width="0.765903"/>
<path d="M120.829 333.554L107.186 326.732C105.493 325.886 105.492 323.47 107.184 322.623L118.079 317.165C119.815 316.295 121.861 316.3 123.593 317.178L135.404 323.164C137.064 324.005 137.087 326.368 135.443 327.242L123.637 333.519C122.762 333.984 121.715 333.997 120.829 333.554Z" fill="#603BF5" stroke="black" stroke-width="0.765903"/>
</g>
<g filter="url(#filter7_d_2002_2)">
<path d="M157.179 338.717L157.209 337.561C157.224 336.967 156.587 336.583 156.069 336.873L144.367 343.428C143.251 344.053 141.898 344.08 140.758 343.5L126.724 336.357C126.597 336.292 126.446 336.385 126.446 336.528V338.57C126.446 339.753 127.127 340.83 128.195 341.337L141.197 347.515C142.069 347.929 143.084 347.908 143.938 347.459L155.544 341.351C156.526 340.834 157.151 339.826 157.179 338.717Z" fill="#1E0B6B" stroke="black" stroke-width="0.765903"/>
<path d="M157.182 338.402L157.144 337.206C157.14 337.065 156.988 336.977 156.863 337.043L142.871 344.428V347.624C142.871 347.727 142.98 347.793 143.071 347.745L155.541 341.213C156.582 340.668 157.219 339.576 157.182 338.402Z" fill="#4D21FF" stroke="black" stroke-width="0.765903"/>
<path d="M141.458 343.722L127.815 336.9C126.122 336.054 126.121 333.638 127.813 332.791L138.708 327.333C140.445 326.463 142.49 326.468 144.223 327.346L156.033 333.332C157.693 334.173 157.716 336.536 156.073 337.41L144.266 343.687C143.391 344.152 142.344 344.165 141.458 343.722Z" fill="#7B5CF7" stroke="black" stroke-width="0.765903"/>
</g>
<g filter="url(#filter8_d_2002_2)">
<path d="M118.072 338.131L118.101 336.974C118.116 336.381 117.479 335.997 116.961 336.287L105.259 342.842C104.144 343.467 102.79 343.493 101.651 342.914L87.6168 335.771C87.4894 335.706 87.3384 335.798 87.3384 335.941V337.984C87.3384 339.166 88.0191 340.243 89.0873 340.751L102.089 346.928C102.961 347.342 103.977 347.322 104.831 346.872L116.436 340.764C117.418 340.247 118.044 339.24 118.072 338.131Z" fill="#1E0B6B" stroke="black" stroke-width="0.765903"/>
<path d="M118.075 337.816L118.037 336.62C118.032 336.478 117.881 336.39 117.756 336.457L103.764 343.842V347.037C103.764 347.14 103.873 347.206 103.964 347.159L116.434 340.627C117.475 340.082 118.112 338.99 118.075 337.816Z" fill="#4D21FF" stroke="black" stroke-width="0.765903"/>
<path d="M102.35 343.135L88.7073 336.314C87.0145 335.467 87.0136 333.052 88.7057 332.204L99.6009 326.746C101.337 325.876 103.383 325.881 105.115 326.759L116.925 332.745C118.586 333.586 118.609 335.949 116.965 336.823L105.159 343.1C104.283 343.565 103.237 343.578 102.35 343.135Z" fill="#7B5CF7" stroke="black" stroke-width="0.765903"/>
</g>
<g filter="url(#filter9_d_2002_2)">
<path d="M139.972 349.081L140.001 347.925C140.017 347.331 139.38 346.947 138.862 347.237L127.159 353.792C126.044 354.417 124.69 354.444 123.551 353.864L109.517 346.721C109.389 346.656 109.239 346.749 109.239 346.891V348.934C109.239 350.116 109.919 351.193 110.987 351.701L123.99 357.878C124.861 358.292 125.877 358.272 126.731 357.822L138.336 351.714C139.318 351.197 139.944 350.19 139.972 349.081Z" fill="#1E0B6B" stroke="black" stroke-width="0.765903"/>
<path d="M139.975 348.766L139.937 347.57C139.932 347.428 139.781 347.341 139.656 347.407L125.664 354.792V357.987C125.664 358.09 125.773 358.156 125.864 358.109L138.334 351.577C139.375 351.032 140.012 349.94 139.975 348.766Z" fill="#4D21FF" stroke="black" stroke-width="0.765903"/>
<path d="M124.251 354.085L110.607 347.264C108.915 346.417 108.914 344.002 110.606 343.154L121.501 337.696C123.237 336.827 125.283 336.831 127.015 337.709L138.825 343.695C140.486 344.537 140.509 346.9 138.865 347.773L127.059 354.05C126.183 354.515 125.137 354.528 124.251 354.085Z" fill="#694BDF" stroke="black" stroke-width="0.765903"/>
</g>
<g filter="url(#filter10_d_2002_2)">
<path d="M179.08 348.885L179.109 347.729C179.124 347.135 178.487 346.751 177.969 347.041L166.267 353.596C165.151 354.221 163.798 354.248 162.658 353.668L148.624 346.525C148.497 346.46 148.346 346.553 148.346 346.696V348.738C148.346 349.921 149.027 350.998 150.095 351.505L163.097 357.683C163.969 358.097 164.985 358.076 165.839 357.626L177.444 351.518C178.426 351.002 179.051 349.994 179.08 348.885Z" fill="#1E0B6B" stroke="black" stroke-width="0.765903"/>
<path d="M179.082 348.57L179.044 347.374C179.04 347.233 178.889 347.145 178.763 347.211L164.771 354.596V357.792C164.771 357.895 164.88 357.961 164.971 357.913L177.442 351.381C178.482 350.836 179.119 349.744 179.082 348.57Z" fill="#4D21FF" stroke="black" stroke-width="0.765903"/>
<path d="M163.358 353.89L149.715 347.068C148.022 346.222 148.021 343.806 149.713 342.959L160.608 337.501C162.345 336.631 164.391 336.636 166.123 337.514L177.933 343.499C179.593 344.341 179.616 346.704 177.973 347.578L166.166 353.855C165.291 354.32 164.245 354.333 163.358 353.89Z" fill="#7B5CF7" stroke="black" stroke-width="0.765903"/>
</g>
<g filter="url(#filter11_d_2002_2)">
<path d="M199.415 359.835L199.445 358.679C199.46 358.085 198.823 357.701 198.305 357.991L186.603 364.546C185.487 365.171 184.134 365.198 182.994 364.618L168.96 357.475C168.833 357.41 168.682 357.503 168.682 357.646V359.688C168.682 360.871 169.362 361.948 170.431 362.455L183.433 368.633C184.304 369.047 185.32 369.026 186.174 368.576L197.78 362.468C198.762 361.952 199.387 360.944 199.415 359.835Z" fill="#1E0B6B" stroke="black" stroke-width="0.765903"/>
<path d="M199.418 359.52L199.38 358.324C199.376 358.183 199.224 358.095 199.099 358.161L185.107 365.546V368.742C185.107 368.845 185.216 368.911 185.307 368.863L197.777 362.331C198.818 361.786 199.455 360.694 199.418 359.52Z" fill="#4D21FF" stroke="black" stroke-width="0.765903"/>
<path d="M183.694 364.84L170.051 358.018C168.358 357.172 168.357 354.756 170.049 353.909L180.944 348.451C182.681 347.581 184.726 347.586 186.459 348.464L198.269 354.449C199.929 355.291 199.952 357.654 198.309 358.528L186.502 364.804C185.627 365.27 184.58 365.283 183.694 364.84Z" fill="#684BDC" stroke="black" stroke-width="0.765903"/>
</g>
<g filter="url(#filter12_d_2002_2)">
<path d="M227.573 373.132L227.602 371.975C227.617 371.382 226.98 370.998 226.462 371.288L214.756 377.845C213.643 378.469 212.292 378.497 211.154 377.92L190.86 367.642C190.733 367.578 190.582 367.67 190.582 367.813V369.868C190.582 371.045 191.256 372.117 192.315 372.628L211.584 381.917C212.459 382.338 213.482 382.32 214.341 381.868L225.937 375.765C226.919 375.248 227.545 374.241 227.573 373.132Z" fill="#1E0B6B" stroke="black" stroke-width="0.765903"/>
<path d="M227.575 372.817L227.537 371.621C227.533 371.479 227.382 371.392 227.257 371.458L213.264 378.843V382.038C213.264 382.141 213.373 382.207 213.465 382.16L225.935 375.628C226.975 375.083 227.613 373.991 227.575 372.817Z" fill="#4D21FF" stroke="black" stroke-width="0.765903"/>
<path d="M211.851 378.136L191.951 368.186C190.258 367.34 190.257 364.924 191.949 364.077L202.849 358.616C204.583 357.748 206.625 357.751 208.356 358.626L226.417 367.748C228.079 368.588 228.104 370.953 226.459 371.828L214.659 378.101C213.784 378.566 212.738 378.58 211.851 378.136Z" fill="#7B5CF7" stroke="black" stroke-width="0.765903"/>
</g>
<g filter="url(#filter13_d_2002_2)">
<path d="M252.783 384.725C252.783 386.833 251.244 388.899 248.409 390.482C245.599 392.051 241.664 393.046 237.278 393.046C232.891 393.046 228.956 392.051 226.146 390.482C223.311 388.899 221.772 386.833 221.772 384.725C221.772 382.172 221.802 379.898 223.587 378.077C225.406 376.222 229.213 374.68 237.316 374.275C245.508 373.865 249.263 375.426 251.027 377.432C252.784 379.429 252.784 382.074 252.783 384.618C252.783 384.653 252.783 384.689 252.783 384.725Z" fill="#4D21FF" stroke="black" stroke-width="1.52267"/>
<path d="M252.783 381.179C252.783 383.287 251.244 385.354 248.409 386.937C245.599 388.506 241.664 389.501 237.278 389.501C232.891 389.501 228.956 388.506 226.146 386.937C223.311 385.354 221.772 383.287 221.772 381.179C221.772 379.071 223.311 377.005 226.146 375.422C228.956 373.853 232.891 372.858 237.278 372.858C241.664 372.858 245.599 373.853 248.409 375.422C251.244 377.005 252.783 379.071 252.783 381.179Z" fill="#684AE2" stroke="black" stroke-width="1.52267"/>
<ellipse cx="232.871" cy="381.117" rx="4.79924" ry="2.76879" fill="#A38DFD"/>
</g>
<g filter="url(#filter14_d_2002_2)">
<path d="M159.789 359.648C159.789 361.448 158.475 363.213 156.054 364.564C153.654 365.904 150.295 366.754 146.548 366.754C142.802 366.754 139.443 365.904 137.043 364.564C134.621 363.213 133.307 361.448 133.307 359.648C133.307 357.468 133.333 355.526 134.858 353.971C136.411 352.387 139.662 351.07 146.581 350.725C153.577 350.375 156.783 351.708 158.29 353.42C159.79 355.126 159.79 357.385 159.789 359.556L159.789 359.648Z" fill="#4D21FF" stroke="black" stroke-width="1.30027"/>
<path d="M159.789 355.285C159.789 357.085 158.475 358.849 156.054 360.201C153.654 361.541 150.295 362.39 146.548 362.39C142.802 362.39 139.443 361.541 137.043 360.201C134.621 358.849 133.307 357.085 133.307 355.285C133.307 353.484 134.621 351.72 137.043 350.368C139.443 349.028 142.802 348.179 146.548 348.179C150.295 348.179 153.654 349.028 156.054 350.368C158.475 351.72 159.789 353.484 159.789 355.285Z" fill="#7B5CF7" stroke="black" stroke-width="1.30027"/>
<ellipse cx="142.785" cy="355.232" rx="4.09826" ry="2.36438" fill="#A48DFD"/>
</g>
<g filter="url(#filter15_d_2002_2)">
<path d="M183.772 371.568L183.802 370.411C183.817 369.818 183.18 369.434 182.662 369.724L170.96 376.279C169.844 376.903 168.491 376.93 167.351 376.351L153.317 369.208C153.19 369.143 153.039 369.235 153.039 369.378V371.421C153.039 372.603 153.72 373.68 154.788 374.188L167.79 380.365C168.662 380.779 169.677 380.758 170.531 380.309L182.137 374.201C183.119 373.684 183.744 372.677 183.772 371.568Z" fill="#1E0B6B" stroke="black" stroke-width="0.765903"/>
<path d="M183.775 371.253L183.737 370.057C183.733 369.915 183.582 369.827 183.456 369.893L169.464 377.279V380.474C169.464 380.577 169.573 380.643 169.664 380.596L182.134 374.064C183.175 373.519 183.812 372.427 183.775 371.253Z" fill="#4D21FF" stroke="black" stroke-width="0.765903"/>
<path d="M168.051 376.572L154.408 369.75C152.715 368.904 152.714 366.489 154.406 365.641L165.301 360.183C167.038 359.313 169.083 359.318 170.816 360.196L182.626 366.182C184.286 367.023 184.309 369.386 182.666 370.26L170.859 376.537C169.984 377.002 168.937 377.015 168.051 376.572Z" fill="#7B5CF7" stroke="black" stroke-width="0.765903"/>
</g>
<g filter="url(#filter16_d_2002_2)">
<path d="M207.237 382.518L207.266 381.362C207.281 380.768 206.644 380.384 206.126 380.674L194.424 387.229C193.309 387.854 191.955 387.881 190.816 387.301L176.782 380.158C176.654 380.093 176.503 380.186 176.503 380.329V382.371C176.503 383.553 177.184 384.63 178.252 385.138L191.254 391.315C192.126 391.729 193.142 391.709 193.996 391.259L205.601 385.151C206.583 384.634 207.209 383.627 207.237 382.518Z" fill="#1E0B6B" stroke="black" stroke-width="0.765903"/>
<path d="M207.239 382.203L207.202 381.007C207.197 380.865 207.046 380.778 206.921 380.844L192.928 388.229V391.424C192.928 391.527 193.038 391.593 193.129 391.546L205.599 385.014C206.639 384.469 207.277 383.377 207.239 382.203Z" fill="#4D21FF" stroke="black" stroke-width="0.765903"/>
<path d="M191.515 387.522L177.872 380.701C176.179 379.854 176.178 377.439 177.871 376.591L188.766 371.133C190.502 370.263 192.548 370.268 194.28 371.146L206.09 377.132C207.75 377.973 207.774 380.336 206.13 381.21L194.323 387.487C193.448 387.952 192.402 387.965 191.515 387.522Z" fill="#7B5CF7" stroke="black" stroke-width="0.765903"/>
</g>
<g filter="url(#filter17_d_2002_2)">
<path d="M235.394 396.596L235.424 395.44C235.439 394.846 234.802 394.462 234.284 394.752L222.577 401.31C221.464 401.933 220.114 401.961 218.975 401.385L198.681 391.107C198.554 391.042 198.403 391.135 198.403 391.278V393.333C198.403 394.509 199.077 395.582 200.137 396.092L219.406 405.381C220.28 405.803 221.303 405.785 222.163 405.333L233.758 399.23C234.74 398.713 235.366 397.706 235.394 396.596Z" fill="#1E0B6B" stroke="black" stroke-width="0.765903"/>
<path d="M235.397 396.281L235.359 395.085C235.354 394.944 235.203 394.856 235.078 394.922L221.086 402.307V405.503C221.086 405.606 221.195 405.672 221.286 405.624L233.756 399.092C234.797 398.547 235.434 397.455 235.397 396.281Z" fill="#4D21FF" stroke="black" stroke-width="0.765903"/>
<path d="M219.673 401.601L199.772 391.651C198.08 390.804 198.079 388.389 199.771 387.541L210.671 382.081C212.404 381.212 214.447 381.216 216.177 382.09L234.238 391.213C235.901 392.052 235.926 394.418 234.281 395.292L222.481 401.566C221.606 402.031 220.559 402.044 219.673 401.601Z" fill="#8C70FF" stroke="black" stroke-width="0.765903"/>
</g>
<g filter="url(#filter18_d_2002_2)">
<path d="M99.3975 347.247L99.4266 346.102C99.4419 345.5 98.7886 345.117 98.2705 345.424L91.2076 349.609C90.0793 350.277 88.6874 350.322 87.5186 349.727L73.5381 342.611C73.4107 342.546 73.2598 342.639 73.2598 342.782V344.824C73.2598 346.007 73.9405 347.084 75.0087 347.591L87.9877 353.758C88.8723 354.178 89.9046 354.15 90.7651 353.682L97.7976 349.861C98.7598 349.338 99.3697 348.342 99.3975 347.247Z" fill="#1E0B6B" stroke="black" stroke-width="0.765903"/>
<path d="M99.5094 347.003L99.4714 345.807C99.467 345.666 99.3156 345.578 99.1904 345.644L89.6849 350.682V353.878C89.6849 353.981 89.7941 354.047 89.8853 353.999L97.8696 349.814C98.9097 349.269 99.5466 348.177 99.5094 347.003Z" fill="#4D21FF" stroke="black" stroke-width="0.765903"/>
<path d="M88.3258 350.002L74.845 343.262C73.1137 342.396 73.1631 339.909 74.9275 339.113L80.6226 336.542C82.3133 335.78 84.2585 335.823 85.913 336.662L97.7039 342.638C99.3937 343.494 99.3793 345.913 97.6794 346.749L91.0482 350.011C90.1892 350.434 89.1821 350.431 88.3258 350.002Z" fill="#7B5CF7" stroke="black" stroke-width="0.765903"/>
</g>
<g filter="url(#filter19_d_2002_2)">
<path d="M154.256 373.491L154.285 372.342C154.301 371.734 153.635 371.351 153.117 371.671L146.587 375.703C145.488 376.381 144.122 376.46 142.952 375.913L93.4771 352.765C93.3502 352.706 93.2045 352.798 93.2045 352.938V354.96C93.2045 356.159 93.9038 357.248 94.9941 357.747L143.405 379.884C144.298 380.292 145.332 380.248 146.187 379.765L152.702 376.08C153.639 375.55 154.229 374.567 154.256 373.491Z" fill="#1E0B6B" stroke="black" stroke-width="0.765903"/>
<path d="M154.994 372.58V371.566C154.994 371.45 154.873 371.374 154.769 371.425L144.435 376.493V379.69C144.435 379.792 144.544 379.859 144.635 379.811L153.34 375.3C154.356 374.774 154.994 373.725 154.994 372.58Z" fill="#4D21FF" stroke="black" stroke-width="0.765903"/>
<path d="M143.387 376.898L94.3378 353.928C93.1482 353.371 93.1334 351.684 94.3131 351.107L102.785 346.957C103.65 346.533 104.661 346.531 105.527 346.951L154.442 370.668C155.008 370.942 155.035 371.738 154.489 372.05L146.206 376.783C145.341 377.278 144.289 377.32 143.387 376.898Z" fill="#553BBE" stroke="black" stroke-width="0.765903"/>
</g>
<path d="M221.345 433.219L270.249 407.48C273.764 405.63 275.964 401.986 275.964 398.014C275.964 395.985 273.793 394.695 272.011 395.666L222.892 422.423C218.335 424.906 212.852 425.005 208.208 422.689L50.918 344.243C50.3901 343.98 49.7696 344.364 49.7696 344.953V346.647C49.7696 351.486 52.5192 355.905 56.8607 358.044L209.815 433.374C213.462 435.17 217.748 435.113 221.345 433.219Z" fill="#2606AA" stroke="black" stroke-width="3.17605"/>
<path d="M278.03 395.548V392.6C278.03 391.997 277.384 391.614 276.855 391.903L215.622 425.403V432.801C215.622 434.356 217.276 435.352 218.651 434.625L271.269 406.776C275.429 404.575 278.03 400.254 278.03 395.548Z" fill="#4D21FF" stroke="black" stroke-width="3.17605"/>
<g filter="url(#filter20_d_2002_2)">
<path d="M176.048 384.79L176.077 383.645C176.092 383.043 175.439 382.66 174.921 382.967L167.858 387.151C166.73 387.82 165.338 387.865 164.169 387.27L150.189 380.154C150.061 380.089 149.91 380.182 149.91 380.325V382.367C149.91 383.55 150.591 384.627 151.659 385.134L164.638 391.301C165.523 391.721 166.555 391.693 167.416 391.225L174.448 387.404C175.41 386.881 176.02 385.885 176.048 384.79Z" fill="#1E0B6B" stroke="black" stroke-width="0.765903"/>
<path d="M176.16 384.546L176.122 383.35C176.117 383.209 175.966 383.121 175.841 383.187L166.335 388.225V391.421C166.335 391.524 166.445 391.59 166.536 391.542L174.52 387.357C175.56 386.811 176.197 385.72 176.16 384.546Z" fill="#4D21FF" stroke="black" stroke-width="0.765903"/>
<path d="M164.976 387.546L151.496 380.805C149.764 379.94 149.814 377.452 151.578 376.656L157.273 374.086C158.964 373.323 160.909 373.367 162.564 374.205L174.354 380.181C176.044 381.038 176.03 383.456 174.33 384.292L167.699 387.554C166.84 387.977 165.833 387.974 164.976 387.546Z" fill="#7B5CF7" stroke="black" stroke-width="0.765903"/>
</g>
<g filter="url(#filter21_d_2002_2)">
<path d="M197.948 394.958L197.977 393.813C197.993 393.211 197.339 392.828 196.821 393.135L189.758 397.319C188.63 397.988 187.238 398.033 186.069 397.438L172.089 390.322C171.961 390.257 171.81 390.35 171.81 390.493V392.535C171.81 393.718 172.491 394.795 173.559 395.302L186.538 401.469C187.423 401.889 188.455 401.861 189.316 401.393L196.348 397.572C197.31 397.049 197.92 396.053 197.948 394.958Z" fill="#1E0B6B" stroke="black" stroke-width="0.765903"/>
<path d="M198.06 394.714L198.022 393.518C198.018 393.376 197.866 393.289 197.741 393.355L188.236 398.393V401.589C188.236 401.691 188.345 401.758 188.436 401.71L196.42 397.525C197.46 396.979 198.097 395.888 198.06 394.714Z" fill="#4D21FF" stroke="black" stroke-width="0.765903"/>
<path d="M186.876 397.714L173.396 390.973C171.664 390.107 171.714 387.62 173.478 386.824L179.173 384.254C180.864 383.491 182.809 383.535 184.464 384.373L196.255 390.349C197.944 391.205 197.93 393.624 196.23 394.46L189.599 397.722C188.74 398.145 187.733 398.142 186.876 397.714Z" fill="#522EE1" stroke="black" stroke-width="0.765903"/>
</g>
<g filter="url(#filter22_d_2002_2)">
<path d="M219.848 405.908L219.877 404.763C219.893 404.161 219.239 403.778 218.721 404.085L211.658 408.269C210.53 408.938 209.138 408.983 207.969 408.388L193.989 401.272C193.861 401.207 193.711 401.3 193.711 401.443V403.485C193.711 404.668 194.391 405.745 195.459 406.252L208.439 412.419C209.323 412.839 210.355 412.811 211.216 412.343L218.248 408.522C219.211 407.999 219.821 407.003 219.848 405.908Z" fill="#1E0B6B" stroke="black" stroke-width="0.765903"/>
<path d="M219.96 405.664L219.922 404.468C219.918 404.327 219.766 404.239 219.641 404.305L210.136 409.343V412.539C210.136 412.641 210.245 412.708 210.336 412.66L218.32 408.475C219.36 407.929 219.997 406.838 219.96 405.664Z" fill="#4D21FF" stroke="black" stroke-width="0.765903"/>
<path d="M208.777 408.664L195.296 401.923C193.564 401.058 193.614 398.57 195.378 397.774L201.073 395.204C202.764 394.441 204.709 394.485 206.364 395.323L218.155 401.299C219.845 402.156 219.83 404.574 218.13 405.41L211.499 408.672C210.64 409.095 209.633 409.092 208.777 408.664Z" fill="#7B5CF7" stroke="black" stroke-width="0.765903"/>
</g>
</g>
<defs>
<filter id="filter0_di_2002_2" x="56.4435" y="189.074" width="123.579" height="87.6006" filterUnits="userSpaceOnUse" color-interpolation-filters="sRGB">
<feFlood flood-opacity="0" result="BackgroundImageFix"/>
<feColorMatrix in="SourceAlpha" type="matrix" values="0 0 0 0 0 0 0 0 0 0 0 0 0 0 0 0 0 0 127 0" result="hardAlpha"/>
<feOffset dy="18.7716"/>
<feComposite in2="hardAlpha" operator="out"/>
<feColorMatrix type="matrix" values="0 0 0 0 0 0 0 0 0 0 0 0 0 0 0 0 0 0 1 0"/>
<feBlend mode="normal" in2="BackgroundImageFix" result="effect1_dropShadow_2002_2"/>
<feBlend mode="normal" in="SourceGraphic" in2="effect1_dropShadow_2002_2" result="shape"/>
<feColorMatrix in="SourceAlpha" type="matrix" values="0 0 0 0 0 0 0 0 0 0 0 0 0 0 0 0 0 0 127 0" result="hardAlpha"/>
<feOffset dx="-1.45939" dy="2.91878"/>
<feComposite in2="hardAlpha" operator="arithmetic" k2="-1" k3="1"/>
<feColorMatrix type="matrix" values="0 0 0 0 1 0 0 0 0 0.984314 0 0 0 0 0.933333 0 0 0 1 0"/>
<feBlend mode="normal" in2="shape" result="effect2_innerShadow_2002_2"/>
</filter>
<filter id="filter1_d_2002_2" x="97.0193" y="148.601" width="35.4163" height="22.6322" filterUnits="userSpaceOnUse" color-interpolation-filters="sRGB">
<feFlood flood-opacity="0" result="BackgroundImageFix"/>
<feColorMatrix in="SourceAlpha" type="matrix" values="0 0 0 0 0 0 0 0 0 0 0 0 0 0 0 0 0 0 127 0" result="hardAlpha"/>
<feOffset dy="0.875318"/>
<feComposite in2="hardAlpha" operator="out"/>
<feColorMatrix type="matrix" values="0 0 0 0 0 0 0 0 0 0 0 0 0 0 0 0 0 0 1 0"/>
<feBlend mode="normal" in2="BackgroundImageFix" result="effect1_dropShadow_2002_2"/>
<feBlend mode="normal" in="SourceGraphic" in2="effect1_dropShadow_2002_2" result="shape"/>
</filter>
<filter id="filter2_i_2002_2" x="39.2363" y="30.3159" width="164.251" height="199.163" filterUnits="userSpaceOnUse" color-interpolation-filters="sRGB">
<feFlood flood-opacity="0" result="BackgroundImageFix"/>
<feBlend mode="normal" in="SourceGraphic" in2="BackgroundImageFix" result="shape"/>
<feColorMatrix in="SourceAlpha" type="matrix" values="0 0 0 0 0 0 0 0 0 0 0 0 0 0 0 0 0 0 127 0" result="hardAlpha"/>
<feOffset dx="-6.25718" dy="12.5144"/>
<feComposite in2="hardAlpha" operator="arithmetic" k2="-1" k3="1"/>
<feColorMatrix type="matrix" values="0 0 0 0 0 0 0 0 0 0 0 0 0 0 0 0 0 0 1 0"/>
<feBlend mode="normal" in2="shape" result="effect1_innerShadow_2002_2"/>
</filter>
<filter id="filter3_di_2002_2" x="150.893" y="252.98" width="92.9266" height="105.747" filterUnits="userSpaceOnUse" color-interpolation-filters="sRGB">
<feFlood flood-opacity="0" result="BackgroundImageFix"/>
<feColorMatrix in="SourceAlpha" type="matrix" values="0 0 0 0 0 0 0 0 0 0 0 0 0 0 0 0 0 0 127 0" result="hardAlpha"/>
<feOffset dy="3.60201"/>
<feComposite in2="hardAlpha" operator="out"/>
<feColorMatrix type="matrix" values="0 0 0 0 0 0 0 0 0 0 0 0 0 0 0 0 0 0 1 0"/>
<feBlend mode="normal" in2="BackgroundImageFix" result="effect1_dropShadow_2002_2"/>
<feBlend mode="normal" in="SourceGraphic" in2="effect1_dropShadow_2002_2" result="shape"/>
<feColorMatrix in="SourceAlpha" type="matrix" values="0 0 0 0 0 0 0 0 0 0 0 0 0 0 0 0 0 0 127 0" result="hardAlpha"/>
<feOffset dx="4.1467" dy="4.1467"/>
<feComposite in2="hardAlpha" operator="arithmetic" k2="-1" k3="1"/>
<feColorMatrix type="matrix" values="0 0 0 0 1 0 0 0 0 0.984314 0 0 0 0 0.933333 0 0 0 1 0"/>
<feBlend mode="normal" in2="shape" result="effect2_innerShadow_2002_2"/>
</filter>
<filter id="filter4_d_2002_2" x="48.1816" y="308.308" width="231.437" height="132.072" filterUnits="userSpaceOnUse" color-interpolation-filters="sRGB">
<feFlood flood-opacity="0" result="BackgroundImageFix"/>
<feColorMatrix in="SourceAlpha" type="matrix" values="0 0 0 0 0 0 0 0 0 0 0 0 0 0 0 0 0 0 127 0" result="hardAlpha"/>
<feOffset dy="3.92202"/>
<feComposite in2="hardAlpha" operator="out"/>
<feColorMatrix type="matrix" values="0 0 0 0 0 0 0 0 0 0 0 0 0 0 0 0 0 0 1 0"/>
<feBlend mode="normal" in2="BackgroundImageFix" result="effect1_dropShadow_2002_2"/>
<feBlend mode="normal" in="SourceGraphic" in2="effect1_dropShadow_2002_2" result="shape"/>
</filter>
<filter id="filter5_i_2002_2" x="65.8029" y="314.485" width="200.891" height="101.295" filterUnits="userSpaceOnUse" color-interpolation-filters="sRGB">
<feFlood flood-opacity="0" result="BackgroundImageFix"/>
<feBlend mode="normal" in="SourceGraphic" in2="BackgroundImageFix" result="shape"/>
<feColorMatrix in="SourceAlpha" type="matrix" values="0 0 0 0 0 0 0 0 0 0 0 0 0 0 0 0 0 0 127 0" result="hardAlpha"/>
<feOffset dy="6.25718"/>
<feComposite in2="hardAlpha" operator="arithmetic" k2="-1" k3="1"/>
<feColorMatrix type="matrix" values="0 0 0 0 0 0 0 0 0 0 0 0 0 0 0 0 0 0 0.5 0"/>
<feBlend mode="normal" in2="shape" result="effect1_innerShadow_2002_2"/>
</filter>
<filter id="filter6_d_2002_2" x="105.434" y="316.133" width="31.6118" height="22.839" filterUnits="userSpaceOnUse" color-interpolation-filters="sRGB">
<feFlood flood-opacity="0" result="BackgroundImageFix"/>
<feColorMatrix in="SourceAlpha" type="matrix" values="0 0 0 0 0 0 0 0 0 0 0 0 0 0 0 0 0 0 127 0" result="hardAlpha"/>
<feOffset dy="0.945795"/>
<feComposite in2="hardAlpha" operator="out"/>
<feColorMatrix type="matrix" values="0 0 0 0 0 0 0 0 0 0 0 0 0 0 0 0 0 0 1 0"/>
<feBlend mode="normal" in2="BackgroundImageFix" result="effect1_dropShadow_2002_2"/>
<feBlend mode="normal" in="SourceGraphic" in2="effect1_dropShadow_2002_2" result="shape"/>
</filter>
<filter id="filter7_d_2002_2" x="126.063" y="326.301" width="31.6118" height="22.839" filterUnits="userSpaceOnUse" color-interpolation-filters="sRGB">
<feFlood flood-opacity="0" result="BackgroundImageFix"/>
<feColorMatrix in="SourceAlpha" type="matrix" values="0 0 0 0 0 0 0 0 0 0 0 0 0 0 0 0 0 0 127 0" result="hardAlpha"/>
<feOffset dy="0.945795"/>
<feComposite in2="hardAlpha" operator="out"/>
<feColorMatrix type="matrix" values="0 0 0 0 0 0 0 0 0 0 0 0 0 0 0 0 0 0 1 0"/>
<feBlend mode="normal" in2="BackgroundImageFix" result="effect1_dropShadow_2002_2"/>
<feBlend mode="normal" in="SourceGraphic" in2="effect1_dropShadow_2002_2" result="shape"/>
</filter>
<filter id="filter8_d_2002_2" x="86.9555" y="325.714" width="31.6118" height="22.839" filterUnits="userSpaceOnUse" color-interpolation-filters="sRGB">
<feFlood flood-opacity="0" result="BackgroundImageFix"/>
<feColorMatrix in="SourceAlpha" type="matrix" values="0 0 0 0 0 0 0 0 0 0 0 0 0 0 0 0 0 0 127 0" result="hardAlpha"/>
<feOffset dy="0.945795"/>
<feComposite in2="hardAlpha" operator="out"/>
<feColorMatrix type="matrix" values="0 0 0 0 0 0 0 0 0 0 0 0 0 0 0 0 0 0 1 0"/>
<feBlend mode="normal" in2="BackgroundImageFix" result="effect1_dropShadow_2002_2"/>
<feBlend mode="normal" in="SourceGraphic" in2="effect1_dropShadow_2002_2" result="shape"/>
</filter>
<filter id="filter9_d_2002_2" x="108.856" y="336.664" width="31.6118" height="22.839" filterUnits="userSpaceOnUse" color-interpolation-filters="sRGB">
<feFlood flood-opacity="0" result="BackgroundImageFix"/>
<feColorMatrix in="SourceAlpha" type="matrix" values="0 0 0 0 0 0 0 0 0 0 0 0 0 0 0 0 0 0 127 0" result="hardAlpha"/>
<feOffset dy="0.945795"/>
<feComposite in2="hardAlpha" operator="out"/>
<feColorMatrix type="matrix" values="0 0 0 0 0 0 0 0 0 0 0 0 0 0 0 0 0 0 1 0"/>
<feBlend mode="normal" in2="BackgroundImageFix" result="effect1_dropShadow_2002_2"/>
<feBlend mode="normal" in="SourceGraphic" in2="effect1_dropShadow_2002_2" result="shape"/>
</filter>
<filter id="filter10_d_2002_2" x="147.963" y="336.469" width="31.6118" height="22.8389" filterUnits="userSpaceOnUse" color-interpolation-filters="sRGB">
<feFlood flood-opacity="0" result="BackgroundImageFix"/>
<feColorMatrix in="SourceAlpha" type="matrix" values="0 0 0 0 0 0 0 0 0 0 0 0 0 0 0 0 0 0 127 0" result="hardAlpha"/>
<feOffset dy="0.945795"/>
<feComposite in2="hardAlpha" operator="out"/>
<feColorMatrix type="matrix" values="0 0 0 0 0 0 0 0 0 0 0 0 0 0 0 0 0 0 1 0"/>
<feBlend mode="normal" in2="BackgroundImageFix" result="effect1_dropShadow_2002_2"/>
<feBlend mode="normal" in="SourceGraphic" in2="effect1_dropShadow_2002_2" result="shape"/>
</filter>
<filter id="filter11_d_2002_2" x="168.299" y="347.419" width="31.6118" height="22.839" filterUnits="userSpaceOnUse" color-interpolation-filters="sRGB">
<feFlood flood-opacity="0" result="BackgroundImageFix"/>
<feColorMatrix in="SourceAlpha" type="matrix" values="0 0 0 0 0 0 0 0 0 0 0 0 0 0 0 0 0 0 127 0" result="hardAlpha"/>
<feOffset dy="0.945795"/>
<feComposite in2="hardAlpha" operator="out"/>
<feColorMatrix type="matrix" values="0 0 0 0 0 0 0 0 0 0 0 0 0 0 0 0 0 0 1 0"/>
<feBlend mode="normal" in2="BackgroundImageFix" result="effect1_dropShadow_2002_2"/>
<feBlend mode="normal" in="SourceGraphic" in2="effect1_dropShadow_2002_2" result="shape"/>
</filter>
<filter id="filter12_d_2002_2" x="190.199" y="357.585" width="37.8624" height="25.9648" filterUnits="userSpaceOnUse" color-interpolation-filters="sRGB">
<feFlood flood-opacity="0" result="BackgroundImageFix"/>
<feColorMatrix in="SourceAlpha" type="matrix" values="0 0 0 0 0 0 0 0 0 0 0 0 0 0 0 0 0 0 127 0" result="hardAlpha"/>
<feOffset dy="0.945795"/>
<feComposite in2="hardAlpha" operator="out"/>
<feColorMatrix type="matrix" values="0 0 0 0 0 0 0 0 0 0 0 0 0 0 0 0 0 0 1 0"/>
<feBlend mode="normal" in2="BackgroundImageFix" result="effect1_dropShadow_2002_2"/>
<feBlend mode="normal" in="SourceGraphic" in2="effect1_dropShadow_2002_2" result="shape"/>
</filter>
<filter id="filter13_d_2002_2" x="221.01" y="372.097" width="32.5346" height="23.3734" filterUnits="userSpaceOnUse" color-interpolation-filters="sRGB">
<feFlood flood-opacity="0" result="BackgroundImageFix"/>
<feColorMatrix in="SourceAlpha" type="matrix" values="0 0 0 0 0 0 0 0 0 0 0 0 0 0 0 0 0 0 127 0" result="hardAlpha"/>
<feOffset dy="1.66304"/>
<feComposite in2="hardAlpha" operator="out"/>
<feColorMatrix type="matrix" values="0 0 0 0 0 0 0 0 0 0 0 0 0 0 0 0 0 0 1 0"/>
<feBlend mode="normal" in2="BackgroundImageFix" result="effect1_dropShadow_2002_2"/>
<feBlend mode="normal" in="SourceGraphic" in2="effect1_dropShadow_2002_2" result="shape"/>
</filter>
<filter id="filter14_d_2002_2" x="132.657" y="347.529" width="27.7825" height="20.8209" filterUnits="userSpaceOnUse" color-interpolation-filters="sRGB">
<feFlood flood-opacity="0" result="BackgroundImageFix"/>
<feColorMatrix in="SourceAlpha" type="matrix" values="0 0 0 0 0 0 0 0 0 0 0 0 0 0 0 0 0 0 127 0" result="hardAlpha"/>
<feOffset dy="0.945795"/>
<feComposite in2="hardAlpha" operator="out"/>
<feColorMatrix type="matrix" values="0 0 0 0 0 0 0 0 0 0 0 0 0 0 0 0 0 0 1 0"/>
<feBlend mode="normal" in2="BackgroundImageFix" result="effect1_dropShadow_2002_2"/>
<feBlend mode="normal" in="SourceGraphic" in2="effect1_dropShadow_2002_2" result="shape"/>
</filter>
<filter id="filter15_d_2002_2" x="152.656" y="359.151" width="31.6118" height="22.8391" filterUnits="userSpaceOnUse" color-interpolation-filters="sRGB">
<feFlood flood-opacity="0" result="BackgroundImageFix"/>
<feColorMatrix in="SourceAlpha" type="matrix" values="0 0 0 0 0 0 0 0 0 0 0 0 0 0 0 0 0 0 127 0" result="hardAlpha"/>
<feOffset dy="0.945795"/>
<feComposite in2="hardAlpha" operator="out"/>
<feColorMatrix type="matrix" values="0 0 0 0 0 0 0 0 0 0 0 0 0 0 0 0 0 0 1 0"/>
<feBlend mode="normal" in2="BackgroundImageFix" result="effect1_dropShadow_2002_2"/>
<feBlend mode="normal" in="SourceGraphic" in2="effect1_dropShadow_2002_2" result="shape"/>
</filter>
<filter id="filter16_d_2002_2" x="176.12" y="370.101" width="31.6118" height="22.8392" filterUnits="userSpaceOnUse" color-interpolation-filters="sRGB">
<feFlood flood-opacity="0" result="BackgroundImageFix"/>
<feColorMatrix in="SourceAlpha" type="matrix" values="0 0 0 0 0 0 0 0 0 0 0 0 0 0 0 0 0 0 127 0" result="hardAlpha"/>
<feOffset dy="0.945795"/>
<feComposite in2="hardAlpha" operator="out"/>
<feColorMatrix type="matrix" values="0 0 0 0 0 0 0 0 0 0 0 0 0 0 0 0 0 0 1 0"/>
<feBlend mode="normal" in2="BackgroundImageFix" result="effect1_dropShadow_2002_2"/>
<feBlend mode="normal" in="SourceGraphic" in2="effect1_dropShadow_2002_2" result="shape"/>
</filter>
<filter id="filter17_d_2002_2" x="198.02" y="381.049" width="37.8624" height="25.9649" filterUnits="userSpaceOnUse" color-interpolation-filters="sRGB">
<feFlood flood-opacity="0" result="BackgroundImageFix"/>
<feColorMatrix in="SourceAlpha" type="matrix" values="0 0 0 0 0 0 0 0 0 0 0 0 0 0 0 0 0 0 127 0" result="hardAlpha"/>
<feOffset dy="0.945795"/>
<feComposite in2="hardAlpha" operator="out"/>
<feColorMatrix type="matrix" values="0 0 0 0 0 0 0 0 0 0 0 0 0 0 0 0 0 0 1 0"/>
<feBlend mode="normal" in2="BackgroundImageFix" result="effect1_dropShadow_2002_2"/>
<feBlend mode="normal" in="SourceGraphic" in2="effect1_dropShadow_2002_2" result="shape"/>
</filter>
<filter id="filter18_d_2002_2" x="72.8768" y="335.617" width="27.0171" height="19.7657" filterUnits="userSpaceOnUse" color-interpolation-filters="sRGB">
<feFlood flood-opacity="0" result="BackgroundImageFix"/>
<feColorMatrix in="SourceAlpha" type="matrix" values="0 0 0 0 0 0 0 0 0 0 0 0 0 0 0 0 0 0 127 0" result="hardAlpha"/>
<feOffset dy="0.945795"/>
<feComposite in2="hardAlpha" operator="out"/>
<feColorMatrix type="matrix" values="0 0 0 0 0 0 0 0 0 0 0 0 0 0 0 0 0 0 1 0"/>
<feBlend mode="normal" in2="BackgroundImageFix" result="effect1_dropShadow_2002_2"/>
<feBlend mode="normal" in="SourceGraphic" in2="effect1_dropShadow_2002_2" result="shape"/>
</filter>
<filter id="filter19_d_2002_2" x="92.8216" y="346.255" width="62.5556" height="35.2357" filterUnits="userSpaceOnUse" color-interpolation-filters="sRGB">
<feFlood flood-opacity="0" result="BackgroundImageFix"/>
<feColorMatrix in="SourceAlpha" type="matrix" values="0 0 0 0 0 0 0 0 0 0 0 0 0 0 0 0 0 0 127 0" result="hardAlpha"/>
<feOffset dy="0.945795"/>
<feComposite in2="hardAlpha" operator="out"/>
<feColorMatrix type="matrix" values="0 0 0 0 0 0 0 0 0 0 0 0 0 0 0 0 0 0 1 0"/>
<feBlend mode="normal" in2="BackgroundImageFix" result="effect1_dropShadow_2002_2"/>
<feBlend mode="normal" in="SourceGraphic" in2="effect1_dropShadow_2002_2" result="shape"/>
</filter>
<filter id="filter20_d_2002_2" x="149.527" y="373.16" width="27.0171" height="19.7656" filterUnits="userSpaceOnUse" color-interpolation-filters="sRGB">
<feFlood flood-opacity="0" result="BackgroundImageFix"/>
<feColorMatrix in="SourceAlpha" type="matrix" values="0 0 0 0 0 0 0 0 0 0 0 0 0 0 0 0 0 0 127 0" result="hardAlpha"/>
<feOffset dy="0.945795"/>
<feComposite in2="hardAlpha" operator="out"/>
<feColorMatrix type="matrix" values="0 0 0 0 0 0 0 0 0 0 0 0 0 0 0 0 0 0 1 0"/>
<feBlend mode="normal" in2="BackgroundImageFix" result="effect1_dropShadow_2002_2"/>
<feBlend mode="normal" in="SourceGraphic" in2="effect1_dropShadow_2002_2" result="shape"/>
</filter>
<filter id="filter21_d_2002_2" x="171.427" y="383.328" width="27.0171" height="19.7656" filterUnits="userSpaceOnUse" color-interpolation-filters="sRGB">
<feFlood flood-opacity="0" result="BackgroundImageFix"/>
<feColorMatrix in="SourceAlpha" type="matrix" values="0 0 0 0 0 0 0 0 0 0 0 0 0 0 0 0 0 0 127 0" result="hardAlpha"/>
<feOffset dy="0.945795"/>
<feComposite in2="hardAlpha" operator="out"/>
<feColorMatrix type="matrix" values="0 0 0 0 0 0 0 0 0 0 0 0 0 0 0 0 0 0 1 0"/>
<feBlend mode="normal" in2="BackgroundImageFix" result="effect1_dropShadow_2002_2"/>
<feBlend mode="normal" in="SourceGraphic" in2="effect1_dropShadow_2002_2" result="shape"/>
</filter>
<filter id="filter22_d_2002_2" x="193.328" y="394.278" width="27.0171" height="19.7656" filterUnits="userSpaceOnUse" color-interpolation-filters="sRGB">
<feFlood flood-opacity="0" result="BackgroundImageFix"/>
<feColorMatrix in="SourceAlpha" type="matrix" values="0 0 0 0 0 0 0 0 0 0 0 0 0 0 0 0 0 0 127 0" result="hardAlpha"/>
<feOffset dy="0.945795"/>
<feComposite in2="hardAlpha" operator="out"/>
<feColorMatrix type="matrix" values="0 0 0 0 0 0 0 0 0 0 0 0 0 0 0 0 0 0 1 0"/>
<feBlend mode="normal" in2="BackgroundImageFix" result="effect1_dropShadow_2002_2"/>
<feBlend mode="normal" in="SourceGraphic" in2="effect1_dropShadow_2002_2" result="shape"/>
</filter>
</defs>
</svg>
