<svg width="66" height="61" viewBox="0 0 66 61" fill="none" xmlns="http://www.w3.org/2000/svg">
<path d="M44.0235 52.1569C43.6926 51.9556 43.4042 51.6856 43.1751 51.3585C43.0692 51.2076 42.9798 51.0481 42.9057 50.8832H5.30121V13.8182H56.3439V38.0204C57.4336 38.1188 58.3479 38.8345 58.7318 39.8145C59.0717 39.6282 59.4505 39.513 59.8487 39.4779C60.118 39.4545 60.3855 39.4712 60.645 39.5225V4.58444C60.645 2.60797 59.0373 1 57.061 1H4.58429C2.60797 1 1 2.60797 1 4.58444V51.6003C1 53.5768 2.60797 55.1846 4.58429 55.1846H43.6969C43.3916 54.5665 43.3192 53.8688 43.4988 53.1975C43.6024 52.8113 43.7816 52.4591 44.0235 52.1569ZM52.4079 7.01899C52.4079 6.28808 53.0004 5.69541 53.7313 5.69541H55.0547C55.7858 5.69541 56.3781 6.28793 56.3781 7.01899V8.51898C56.3781 9.2499 55.7856 9.84241 55.0547 9.84241H53.7313C53.0002 9.84241 52.4079 9.2499 52.4079 8.51898V7.01899ZM46.2538 7.01899C46.2538 6.28808 46.8463 5.69541 47.5773 5.69541H48.9008C49.6319 5.69541 50.2243 6.28793 50.2243 7.01899V8.51898C50.2243 9.2499 49.6317 9.84241 48.9008 9.84241H47.5773C46.8463 9.84241 46.2538 9.2499 46.2538 8.51898V7.01899ZM40.0996 7.01899C40.0996 6.28808 40.6923 5.69541 41.4231 5.69541H42.7465C43.4775 5.69541 44.0701 6.28793 44.0701 7.01899V8.51898C44.0701 9.2499 43.4775 9.84241 42.7465 9.84241H41.4231C40.6923 9.84241 40.0996 9.2499 40.0996 8.51898V7.01899Z" fill="#FE91E8" stroke="#AC539E"/>
<path d="M64.8559 49.6328L64.4582 47.3774C64.4045 47.0737 64.1151 46.8708 63.8111 46.9244L61.8054 47.2778C61.5646 46.7128 61.2571 46.1836 60.8921 45.6992L62.2022 44.1376C62.2974 44.0244 62.3438 43.8777 62.331 43.73C62.3179 43.5823 62.2467 43.4461 62.1333 43.3507L60.3792 41.8785C60.2657 41.7833 60.1186 41.7371 59.9711 41.75C59.8234 41.763 59.6872 41.834 59.592 41.9474L58.2831 43.5078C57.7458 43.2341 57.1711 43.023 56.569 42.8837V40.847C56.569 40.5385 56.3188 40.2882 56.0104 40.2882H53.7201C53.4118 40.2882 53.1614 40.5385 53.1614 40.847V42.8837C52.559 43.0228 51.9849 43.2341 51.4473 43.5078L50.1382 41.9476C49.9399 41.7113 49.5876 41.6805 49.3512 41.8787L47.5969 43.3507C47.4834 43.4461 47.4124 43.5823 47.3993 43.73C47.3866 43.8777 47.4328 44.0246 47.528 44.138L48.8382 45.6993C48.4738 46.1836 48.1657 46.7131 47.9249 47.278L45.9193 46.9244C45.616 46.871 45.326 47.0737 45.2721 47.3774L44.8746 49.6328C44.8489 49.7786 44.8822 49.9286 44.9669 50.0501C45.0522 50.1716 45.1813 50.2542 45.3273 50.2799L47.3345 50.6337C47.3672 51.2555 47.4755 51.8572 47.6498 52.4301L45.8856 53.4483C45.7573 53.522 45.6638 53.6443 45.6253 53.7873C45.587 53.9304 45.6072 54.0828 45.6811 54.2111L46.8261 56.1944C46.8999 56.3228 47.0222 56.4163 47.1651 56.4546C47.2127 56.4674 47.2612 56.4737 47.3097 56.4737C47.4069 56.4737 47.5032 56.4484 47.589 56.3988L49.3545 55.3794C49.7697 55.8243 50.2384 56.2185 50.7506 56.5518L50.0535 58.467C50.003 58.6063 50.0095 58.7599 50.0722 58.8942C50.1348 59.0285 50.2481 59.1324 50.3873 59.1829L52.539 59.9659C52.6007 59.9884 52.6655 60 52.7301 60C52.8107 60 52.8918 59.9825 52.9665 59.9475C53.1008 59.885 53.2043 59.7716 53.255 59.6323L53.952 57.7171C54.2508 57.7533 54.555 57.772 54.8636 57.772C55.1721 57.772 55.4763 57.753 55.7751 57.7171L56.4723 59.6323C56.5228 59.7716 56.6268 59.885 56.7608 59.9475C56.8353 59.9824 56.9161 60 56.9971 60C57.0616 60 57.1264 59.9887 57.1882 59.9659L59.3401 59.1829C59.479 59.1324 59.5924 59.0282 59.6549 58.8942C59.7176 58.7599 59.7243 58.6063 59.6736 58.467L58.9765 56.5521C59.4883 56.2188 59.957 55.8243 60.3726 55.3797L62.1381 56.3991C62.2238 56.4484 62.3202 56.474 62.4174 56.474C62.4657 56.474 62.5147 56.4674 62.562 56.4549C62.7051 56.4166 62.8271 56.3228 62.901 56.1947L64.046 54.2111C64.1199 54.0831 64.1402 53.9304 64.1018 53.7873C64.0634 53.6446 63.9698 53.5223 63.8415 53.4483L62.0776 52.4304C62.2519 51.8573 62.3599 51.2557 62.3926 50.634L64.3998 50.2801C64.5458 50.2544 64.6754 50.1718 64.7602 50.0503C64.8483 49.9286 64.8816 49.7786 64.8559 49.6328ZM54.8654 53.2168C53.1689 53.2168 51.7933 51.8412 51.7933 50.1446C51.7933 48.4479 53.1691 47.0725 54.8654 47.0725C56.562 47.0725 57.9376 48.4479 57.9376 50.1446C57.9376 51.8412 56.562 53.2168 54.8654 53.2168Z" fill="#FE91E8" stroke="#AC539E"/>
<path d="M26.0473 34.3641C26.0473 33.6414 25.6238 32.9776 24.9681 32.6731L18.9677 29.8851L24.9683 27.0968C25.6238 26.7921 26.0473 26.1284 26.0473 25.406V25.3575C26.0473 24.7172 25.725 24.1294 25.1858 23.7858C24.8874 23.5953 24.5399 23.4944 24.1811 23.4944C23.9107 23.4944 23.6392 23.5539 23.3964 23.6667L13.8033 28.1278C13.1479 28.4326 12.7247 29.0963 12.7247 29.8185V29.9519C12.7247 30.6732 13.1478 31.3364 13.8034 31.6427L23.3974 36.1042C23.6455 36.2191 23.9096 36.2773 24.1825 36.2773C24.538 36.2773 24.8845 36.1763 25.1858 35.9847C25.7254 35.6398 26.0475 35.0524 26.0475 34.4129L26.0473 34.3641Z" fill="#FE91E8" stroke="#AC539E"/>
<path d="M35.5125 18.9488C35.1626 18.4698 34.5997 18.1838 34.0067 18.1838H33.959C33.1447 18.1838 32.4308 18.7047 32.1828 19.479L25.8622 39.063C25.6823 39.6285 25.7836 40.2512 26.1331 40.7302C26.483 41.2089 27.0459 41.495 27.6389 41.495H27.6868C28.5007 41.495 29.2141 40.9739 29.4619 40.1998L35.7817 20.6173C35.9633 20.0523 35.8626 19.4286 35.5125 18.9488Z" fill="#FE91E8" stroke="#AC539E"/>
<path d="M47.8417 28.1276L38.2485 23.6666C38.0064 23.554 37.7354 23.4946 37.4649 23.4946C37.1063 23.4946 36.7587 23.5951 36.4604 23.7854C35.9202 24.1295 35.598 24.7172 35.598 25.3574V25.406C35.598 26.1277 36.0212 26.7916 36.6773 27.0976L42.6776 29.8853L36.6772 32.6731C36.0215 32.9776 35.598 33.6414 35.598 34.3641V34.4129C35.598 35.0524 35.9202 35.6396 36.4601 35.9849C36.7603 36.1762 37.1071 36.2773 37.4631 36.2773C37.7357 36.2773 37.9995 36.2191 38.2492 36.1038L47.8429 31.6423C48.498 31.3367 48.9209 30.6734 48.9209 29.952V29.8187C48.9204 29.0963 48.4972 28.4326 47.8417 28.1276Z" fill="#FE91E8" stroke="#AC539E"/>
</svg>
